<svg xmlns="http://www.w3.org/2000/svg" height="48" viewBox="0 -960 960 960" width="48"><path d="M322-128q-37.175 0-64.087-27.206Q231-182.413 231-220v-105h132v-129q-35 0-71.5-13.5t-65.222-40.88V-564H179L44-700q40-33 91-56.5T238-780q26 0 61.5 9.5T363-742v-91h500v577q0 53.25-37.875 90.625T735-128H322Zm132-197h245v69q0 17 9.307 26.5t26 9.5Q751-220 761-229.5t10-26.5v-485H454v62l213 213v50h-49L507-530l-14 17q-10.129 11.667-19.379 17.69-9.25 6.024-19.621 11.31v159ZM209-632h85v90q13.895 10.714 30.072 15.857Q340.25-521 357.108-521 381-521 405-535q24-14 34.385-23.692L455-577l-64.953-65.953Q357.183-676 319.169-694T238-712q-26.214 0-46.107 6.5T153-688.75L209-632Zm399.064 375H322v37h300q-7-4-10.468-14t-3.468-23ZM322-220v-37 37Z"/></svg>